<?xml version="1.0" encoding="UTF-8"?>
<!-- Generated by Pixelmator Pro 3.6 -->
<svg width="3386" height="820" viewBox="0 0 3386 820" xmlns="http://www.w3.org/2000/svg">
    <g id="Group">
        <path id="Rectangle-copy" fill="none" stroke="#ffffff" stroke-width="67.899689" d="M 668.481689 492.629608 L 671.325928 484.317291 L 191.766846 320.225342 L 188.922592 328.537659 Z"/>
        <path id="Rectangle-copy-5" fill="none" stroke="#ffffff" stroke-width="67.899689" d="M 497.497467 656.748901 L 505.759033 653.760437 L 335.210571 182.280334 L 326.948975 185.268799 Z"/>
        <path id="Rectangle-copy-2" fill="none" stroke="#ffffff" stroke-width="67.899689" d="M 621.901367 227.950623 L 629.196045 237.207153 L 202.989334 573.083557 L 195.694641 563.827026 Z"/>
        <path id="Rectangle-copy-3" fill="none" stroke="#ffffff" stroke-width="67.899689" d="M 499.714111 167.903198 L 496.31366 166.78772 L 433.619354 357.906799 L 437.019806 359.022278 Z"/>
        <path id="Quarter-Circle-copy" fill="#ffffff" fill-rule="evenodd" stroke="#ffffff" stroke-width="67.899689" d="M 660.838684 280.452026 C 725.924377 415.285553 669.382568 577.35199 534.549072 642.437683 L 416.70105 398.300018 L 660.838684 280.452026 Z"/>
        <path id="Path" fill="none" stroke="#ffffff" stroke-width="67.899689" d="M 577.880188 168.797791 C 496.648438 111.989685 396.707031 101.912231 309.969818 132.918701 C 254.514877 152.742432 204.457306 189.35968 168.137451 241.294678 C 75.009552 374.461456 107.467514 557.909546 240.634293 651.037415 C 373.801086 744.165283 557.249207 711.707336 650.377075 578.540527 C 743.504883 445.373779 711.046997 261.925659 577.880188 168.797791 Z"/>
    </g>
    <g id="coding-club">
        <path id="path1" fill="#ffffff" stroke="none" d="M 2409.508301 402.525238 C 2386.942871 402.525238 2367.474772 397.491842 2351.104004 387.425049 C 2334.73291 377.360026 2322.122803 363.312012 2313.273682 345.281006 C 2304.424561 327.251668 2300 306.401245 2300 282.729736 C 2300 259.058309 2304.424561 238.152222 2313.273682 220.011475 C 2322.122803 201.870687 2334.73291 187.712016 2351.104004 177.535461 C 2367.474772 167.358866 2386.942871 162.270569 2409.508301 162.270569 C 2437.383138 162.270569 2460.169759 169.239319 2477.868164 183.176819 C 2495.566406 197.114156 2506.517171 216.803507 2510.720459 242.244873 L 2462.603271 242.244873 C 2459.506104 229.856038 2453.422282 220.176819 2444.351807 213.207214 C 2435.281494 206.239482 2423.556396 202.755615 2409.176514 202.755615 C 2395.902751 202.755615 2384.50944 206.01829 2374.996582 212.54364 C 2365.483724 219.070699 2358.238037 228.251668 2353.259521 240.086548 C 2348.282796 251.923218 2345.794434 266.137614 2345.794434 282.729736 C 2345.794434 299.100749 2348.282796 313.25941 2353.259521 325.205719 C 2358.238037 337.15213 2365.483724 346.33312 2374.996582 352.748688 C 2384.50944 359.164358 2395.902751 362.372192 2409.176514 362.372192 C 2423.556396 362.372192 2435.281494 359.108643 2444.351807 352.581543 C 2453.422282 346.056091 2459.506104 336.930817 2462.603271 325.205719 L 2510.720459 325.205719 C 2506.517171 349.319651 2495.566406 368.234751 2477.868164 381.951019 C 2460.169759 395.667165 2437.383138 402.525238 2409.508301 402.525238 Z"/>
        <path id="path2" fill="#ffffff" stroke="none" d="M 2606.372559 402.525238 C 2589.785807 402.525238 2575.132568 398.653737 2562.412842 390.910736 C 2549.691162 383.167735 2539.73584 372.438161 2532.546875 358.722015 C 2525.355957 345.005747 2521.760498 329.186951 2521.760498 311.265625 C 2521.760498 293.126628 2525.355957 277.253886 2532.546875 263.6474 C 2539.73584 250.042786 2549.748698 239.368978 2562.585449 231.625977 C 2575.420247 223.882975 2590.130127 220.011475 2606.715088 220.011475 C 2623.526774 220.011475 2638.23763 223.882975 2650.847656 231.625977 C 2663.457682 239.368978 2673.302409 250.042786 2680.381836 263.6474 C 2687.4611 277.253886 2691.000732 293.126628 2691.000732 311.265625 C 2691.000732 329.186951 2687.4611 345.005747 2680.381836 358.722015 C 2673.302409 372.438161 2663.401042 383.167735 2650.677734 390.910736 C 2637.954264 398.653737 2623.185872 402.525238 2606.372559 402.525238 Z M 2606.253906 363.699585 C 2614.08138 363.699585 2620.926839 361.763367 2626.790283 357.89093 C 2632.651937 354.020365 2637.242025 348.165883 2640.560547 340.327484 C 2643.878906 332.487437 2645.538086 322.79658 2645.538086 311.254913 C 2645.538086 299.538706 2643.934652 289.809102 2640.727783 282.066101 C 2637.519124 274.3231 2633.038818 268.515381 2627.286865 264.642944 C 2621.534912 260.77238 2614.689372 258.837097 2606.750244 258.837097 C 2598.982015 258.837097 2592.167074 260.77238 2586.30542 264.642944 C 2580.441976 268.515381 2575.851074 274.3231 2572.532715 282.066101 C 2569.214193 289.809102 2567.554932 299.538706 2567.554932 311.254913 C 2567.554932 322.79658 2569.159342 332.487437 2572.368164 340.327484 C 2575.575033 348.165883 2580.110189 354.020365 2585.973633 357.89093 C 2591.835286 361.763367 2598.595378 363.699585 2606.253906 363.699585 Z"/>
        <path id="path3" fill="#ffffff" stroke="none" d="M 2777.131592 402.525238 C 2762.199463 402.525238 2748.973389 398.708628 2737.453369 391.075409 C 2725.933187 383.443837 2716.965332 372.880575 2710.549805 359.38562 C 2704.134115 345.890666 2700.92627 330.404663 2700.92627 312.927612 C 2700.92627 294.793986 2704.24471 278.756673 2710.881592 264.815674 C 2717.518473 250.874593 2726.909912 239.921956 2739.055908 231.957764 C 2751.203695 223.993571 2765.262533 220.011475 2781.232422 220.011475 C 2792.514974 220.011475 2802.470215 222.113118 2811.098145 226.316406 C 2819.726074 230.519694 2826.694824 236.603495 2832.004395 244.56781 L 2832.004395 159.615845 L 2876.803223 159.615845 L 2876.803223 398.543091 L 2836.982178 398.543091 L 2832.004395 375.314087 L 2832.004395 375.314087 C 2828.686035 380.181112 2824.593262 384.716329 2819.726074 388.919739 C 2814.859049 393.123047 2808.996501 396.441488 2802.138428 398.875061 C 2795.280355 401.308512 2786.944743 402.525238 2777.131592 402.525238 Z M 2789.860352 363.367767 C 2798.601563 363.367767 2806.20695 361.266062 2812.676514 357.062653 C 2819.146077 352.859344 2824.205566 346.825043 2827.85498 338.959747 C 2831.506185 331.094452 2833.331787 321.802806 2833.331787 311.084808 C 2833.331787 300.366933 2831.506185 291.080729 2827.85498 283.226196 C 2824.205566 275.373535 2819.125407 269.400391 2812.614502 265.306763 C 2806.105387 261.214844 2798.452311 259.168884 2789.655273 259.168884 C 2781.385254 259.168884 2773.968669 261.263346 2767.405518 265.452271 C 2760.844157 269.639445 2755.701009 275.622538 2751.976074 283.40155 C 2748.251139 291.178813 2746.388672 300.366994 2746.388672 310.966095 C 2746.388672 321.565318 2748.255615 330.819194 2751.989502 338.727722 C 2755.723551 346.636169 2760.879313 352.719981 2767.456787 356.979156 C 2774.036051 361.23823 2781.503906 363.367767 2789.860352 363.367767 Z"/>
        <path id="path4" fill="#ffffff" stroke="none" d="M 2897.218262 398.543091 L 2897.218262 223.993469 L 2942.01709 223.993469 L 2942.01709 398.543091 Z M 2919.783691 203.419189 C 2911.598307 203.419189 2904.961426 201.040527 2899.873047 196.283203 C 2894.784831 191.52771 2892.240723 185.499654 2892.240723 178.199036 C 2892.240723 170.89858 2894.784831 164.86967 2899.873047 160.112305 C 2904.961426 155.356812 2911.598307 152.979065 2919.783691 152.979065 C 2927.969076 152.979065 2934.661702 155.356812 2939.861572 160.112305 C 2945.059489 164.86967 2947.658447 170.89858 2947.658447 178.199036 C 2947.658447 185.499654 2945.059489 191.52771 2939.861572 196.283203 C 2934.661702 201.040527 2927.969076 203.419189 2919.783691 203.419189 Z"/>
        <path id="path5" fill="#ffffff" stroke="none" d="M 2965.640137 398.543091 L 2965.640137 223.993469 L 3005.129395 223.993469 L 3008.115967 249.87738 L 3008.115967 249.87738 C 3012.982992 240.585754 3020.062337 233.285156 3029.354004 227.975586 C 3038.645671 222.666178 3049.81779 220.011475 3062.870361 220.011475 C 3076.365316 220.011475 3087.869222 222.721069 3097.38208 228.140259 C 3106.894938 233.561239 3114.195475 241.414836 3119.283691 251.70105 C 3124.371908 261.989176 3126.916016 274.544373 3126.916016 289.366638 L 3126.916016 398.543091 L 3082.117188 398.543091 L 3082.117188 293.348816 C 3082.117188 282.066101 3079.130615 273.327576 3073.157471 267.13324 C 3067.184326 260.938782 3058.777588 257.841553 3047.937256 257.841553 C 3041.079183 257.841553 3034.77417 259.334412 3029.022217 262.320129 C 3023.270264 265.307556 3018.735026 269.677246 3015.416504 275.429199 C 3012.098145 281.181152 3010.438965 288.260478 3010.438965 296.667175 L 3010.438965 398.543091 Z"/>
        <path id="path6" fill="#ffffff" stroke="none" d="M 3213.411133 475.530823 C 3196.81901 475.530823 3182.439128 473.594635 3170.271484 469.72226 C 3158.104004 465.851634 3148.701823 459.989054 3142.064941 452.134521 C 3135.42806 444.281799 3132.109619 434.603485 3132.109619 423.099579 C 3132.109619 414.692902 3134.100667 406.94986 3138.082764 399.870453 C 3142.06486 392.791189 3147.927409 386.43041 3155.67041 380.788116 C 3163.413411 375.147715 3172.92627 370.336456 3184.208984 366.35434 L 3203.124023 388.587769 C 3192.062663 391.90627 3184.209066 396.109629 3179.563232 401.197845 C 3174.917399 406.286184 3172.594482 411.927551 3172.594482 418.121948 C 3172.594482 423.431417 3174.253662 427.855977 3177.572021 431.39563 C 3180.890544 434.935323 3185.591227 437.534322 3191.674072 439.192627 C 3197.758708 440.852763 3204.672526 441.682831 3212.415527 441.682831 C 3220.158529 441.682831 3226.906006 440.797902 3232.657959 439.028046 C 3238.409912 437.258209 3242.834554 434.658325 3245.931885 431.228394 C 3249.029053 427.800232 3250.577637 423.542013 3250.577637 418.453735 C 3250.577637 411.816833 3248.365316 406.672821 3243.940674 403.021698 C 3239.516195 399.372345 3230.445801 397.105204 3216.729492 396.220276 C 3205.004395 395.335347 3194.606689 394.007965 3185.536377 392.238129 C 3176.465902 390.468272 3168.612305 388.477214 3161.975586 386.264954 C 3155.338704 384.052714 3149.697347 381.508606 3145.051514 378.632629 C 3140.40568 375.756653 3136.644775 372.880625 3133.768799 370.004547 L 3133.768799 362.372192 L 3169.60791 324.542114 L 3203.787598 334.829224 L 3159.652588 375.645874 L 3172.594482 352.41687 C 3174.806722 353.965515 3177.129639 355.403503 3179.563232 356.730835 C 3181.996663 358.058289 3185.093831 359.219309 3188.854736 360.213898 C 3192.615641 361.210358 3197.593262 362.205882 3203.787598 363.20047 C 3209.982096 364.19693 3217.94637 365.137624 3227.68042 366.022552 C 3242.502848 367.349884 3254.614665 370.004598 3264.015869 373.986694 C 3273.419027 377.968791 3280.332926 383.554372 3284.757568 390.743439 C 3289.18221 397.934357 3291.394531 406.839294 3291.394531 417.458252 C 3291.394531 427.634766 3288.684001 437.091838 3283.262939 445.829468 C 3277.843669 454.568929 3269.38208 461.70401 3257.878174 467.234711 C 3246.374268 472.765452 3231.551921 475.530823 3213.411133 475.530823 Z M 3213.74292 347.10733 C 3199.584391 347.10733 3187.416829 344.342021 3177.240234 338.811401 C 3167.063802 333.28064 3159.265055 325.703074 3153.843994 316.078705 C 3148.424723 306.456167 3145.715088 295.671692 3145.715088 283.725281 C 3145.715088 271.778992 3148.424723 260.993652 3153.843994 251.369263 C 3159.265055 241.746623 3167.063802 234.114217 3177.240234 228.472046 C 3187.416829 222.831665 3199.584391 220.011475 3213.74292 220.011475 C 3228.122803 220.011475 3240.345296 222.831665 3250.4104 228.472046 C 3260.477132 234.114217 3268.165283 241.746623 3273.474854 251.369263 C 3278.784424 260.993652 3281.439209 271.778992 3281.439209 283.725281 C 3281.439209 295.671692 3278.784424 306.456167 3273.474854 316.078705 C 3268.165283 325.703074 3260.477132 333.28064 3250.4104 338.811401 C 3240.345296 344.342021 3228.122803 347.10733 3213.74292 347.10733 Z M 3213.74292 312.927612 C 3222.813395 312.927612 3229.947591 310.54893 3235.145508 305.791565 C 3240.345378 301.036072 3242.945313 293.680644 3242.945313 283.725281 C 3242.945313 273.77004 3240.345378 266.469503 3235.145508 261.823669 C 3229.947591 257.177877 3222.813395 254.85498 3213.74292 254.85498 C 3204.893799 254.85498 3197.703857 257.177877 3192.173096 261.823669 C 3186.642497 266.469503 3183.877197 273.77004 3183.877197 283.725281 C 3183.877197 293.680644 3186.586751 301.036072 3192.005859 305.791565 C 3197.426921 310.54893 3204.672607 312.927612 3213.74292 312.927612 Z M 3243.2771 255.518555 L 3235.976563 223.993469 L 3305 223.993469 L 3305 250.541016 Z"/>
        <path id="path7" fill="#ffffff" stroke="none" d="M 2409.508301 668 C 2386.942871 668 2367.474772 662.967489 2351.104004 652.902466 C 2334.73291 642.835653 2322.122803 628.787638 2313.273682 610.758423 C 2304.424561 592.727336 2300 571.876058 2300 548.20459 C 2300 524.53304 2304.424561 503.626892 2313.273682 485.486145 C 2322.122803 467.345357 2334.73291 453.186707 2351.104004 443.010193 C 2367.474772 432.833639 2386.942871 427.745361 2409.508301 427.745361 C 2437.383138 427.745361 2460.169759 434.71406 2477.868164 448.651459 C 2495.566406 462.588938 2506.517171 482.27833 2510.720459 507.719635 L 2462.603271 507.719635 C 2459.506104 495.330821 2453.422282 485.652507 2444.351807 478.684692 C 2435.281494 471.715088 2423.556396 468.230286 2409.176514 468.230286 C 2395.902751 468.230286 2384.50944 471.493856 2374.996582 478.020996 C 2365.483724 484.546346 2358.238037 493.727336 2353.259521 505.563965 C 2348.282796 517.398844 2345.794434 531.612386 2345.794434 548.20459 C 2345.794434 564.575521 2348.282796 578.734151 2353.259521 590.680481 C 2358.238037 602.626851 2365.483724 611.807861 2374.996582 618.223511 C 2384.50944 624.639119 2395.902751 627.846924 2409.176514 627.846924 C 2423.556396 627.846924 2435.281494 624.584269 2444.351807 618.05896 C 2453.422282 611.531779 2459.506104 602.405619 2462.603271 590.680481 L 2510.720459 590.680481 C 2506.517171 614.794454 2495.566406 633.709513 2477.868164 647.425659 C 2460.169759 661.141886 2437.383138 668 2409.508301 668 Z"/>
        <path id="path8" fill="#ffffff" stroke="none" d="M 2533.401855 664.017944 L 2533.401855 425.090668 L 2578.200684 425.090668 L 2578.200684 664.017944 Z"/>
        <path id="path9" fill="#ffffff" stroke="none" d="M 2660.427734 668 C 2646.93278 668 2635.373128 665.455851 2625.748779 660.367554 C 2616.126221 655.279338 2608.770833 647.757568 2603.682617 637.802246 C 2598.594401 627.846965 2596.050293 615.347555 2596.050293 600.304016 L 2596.050293 489.468292 L 2640.517334 489.468292 L 2640.517334 594.662659 C 2640.517334 607.051453 2643.558757 616.066976 2649.641602 621.709229 C 2655.726237 627.34965 2664.188639 630.169861 2675.028809 630.169861 C 2682.108236 630.169861 2688.41333 628.787638 2693.944092 626.023193 C 2699.474691 623.256917 2703.899251 618.997803 2707.217773 613.24585 C 2710.536133 607.493896 2712.195313 600.303955 2712.195313 591.676025 L 2712.195313 489.468292 L 2756.994385 489.468292 L 2756.994385 664.017944 L 2717.504883 664.017944 L 2714.186523 638.134094 L 2714.186523 638.134094 C 2709.54069 647.42572 2702.682536 654.726278 2693.612061 660.035767 C 2684.541748 665.345256 2673.480306 668 2660.427734 668 Z"/>
        <path id="path10" fill="#ffffff" stroke="none" d="M 2877.373291 668 C 2867.639079 668 2859.287191 666.728394 2852.317627 664.185181 C 2845.349854 661.640096 2839.5979 658.432271 2835.061768 654.561707 C 2830.527425 650.68927 2826.71167 646.762004 2823.614502 642.779907 L 2823.614502 642.779907 L 2818.636963 664.017944 L 2778.815674 664.017944 L 2778.815674 425.090668 L 2823.614502 425.090668 L 2823.614502 513.029053 C 2829.145264 503.295024 2836.556478 496.271474 2845.848145 491.958405 C 2855.139648 487.643565 2865.205566 485.486145 2876.045898 485.486145 C 2891.531901 485.486145 2905.192301 489.413411 2917.0271 497.267944 C 2928.863688 505.120667 2938.155273 515.825989 2944.901855 529.383911 C 2951.650391 542.940063 2955.024658 558.535807 2955.024658 576.171143 C 2955.024658 593.587036 2951.706217 609.208862 2945.069336 623.036621 C 2938.432454 636.862467 2929.328776 647.813293 2917.758301 655.889099 C 2906.189616 663.963033 2892.727946 668 2877.373291 668 Z M 2865.758789 628.842468 C 2874.115072 628.842468 2881.537923 626.738098 2888.027344 622.529358 C 2894.516602 618.320618 2899.672282 612.307861 2903.494385 604.491089 C 2907.318278 596.674357 2909.230225 587.441203 2909.230225 576.791626 C 2909.230225 566.140259 2907.318278 556.896301 2903.494385 549.059753 C 2899.672282 541.221415 2894.516602 535.192464 2888.027344 530.9729 C 2881.537923 526.753418 2874.115072 524.643677 2865.758789 524.643677 C 2857.352051 524.643677 2849.885091 526.745361 2843.35791 530.94873 C 2836.83252 535.152018 2831.744222 541.18634 2828.093018 549.051697 C 2824.443766 556.916972 2822.619141 566.208577 2822.619141 576.926514 C 2822.619141 587.644409 2824.443766 596.874878 2828.093018 604.61792 C 2831.744222 612.360921 2836.83252 618.334106 2843.35791 622.537476 C 2849.885091 626.740804 2857.352051 628.842468 2865.758789 628.842468 Z"/>
    </g>
    <g id="g1">
        <path id="AYOJ-copy" fill="#ffffff" fill-rule="evenodd" stroke="none" d="M 1239.109131 583.066284 C 1235.61438 583.066284 1232.674683 581.873901 1230.290039 579.489258 C 1227.905396 577.104614 1226.713013 574.164917 1226.713013 570.670166 L 1226.713013 464.594482 L 1112.188354 253.368164 C 1111.859375 252.586975 1111.551025 251.754456 1111.263184 250.870483 C 1110.975342 249.986511 1110.831543 249.092224 1110.831543 248.187744 C 1110.831543 245.35083 1111.869629 242.894226 1113.945923 240.817932 C 1116.022217 238.741638 1118.478882 237.703491 1121.315796 237.703491 L 1182.987671 237.703491 C 1187.962646 237.703491 1191.847778 238.947205 1194.643677 241.434631 C 1197.439453 243.922119 1199.289673 246.173096 1200.194092 248.187744 L 1271.178467 375.478577 L 1342.162842 248.187744 C 1343.190674 246.173096 1345.071655 243.922119 1347.805908 241.434631 C 1350.540039 238.947205 1354.394409 237.703491 1359.369385 237.703491 L 1421.04126 237.703491 C 1423.878174 237.703491 1426.334839 238.741638 1428.411011 240.817932 C 1430.487305 242.894226 1431.525513 245.35083 1431.525513 248.187744 C 1431.525513 249.092224 1431.412354 249.986511 1431.186279 250.870483 C 1430.960205 251.754456 1430.620972 252.586975 1430.168701 253.368164 L 1315.643921 464.594482 L 1315.643921 570.670166 C 1315.643921 574.164917 1314.451538 577.104614 1312.067017 579.489258 C 1309.682373 581.873901 1306.680908 583.066284 1303.062866 583.066284 Z"/>
        <path id="Shape" fill="#ffffff" fill-rule="evenodd" stroke="none" d="M 829.484253 583.066284 C 826.647339 583.066284 824.190735 582.028076 822.114441 579.951782 C 820.038147 577.875488 819 575.418945 819 572.582031 C 819 571.143005 819.226135 569.745117 819.678406 568.388306 L 935.251587 251.579712 C 936.361633 248.0849 938.448181 244.89856 941.511292 242.020508 C 944.574341 239.142517 948.901611 237.703491 954.493225 237.703491 L 1027.697754 237.703491 C 1033.289429 237.703491 1037.616699 239.142517 1040.679688 242.020508 C 1043.742798 244.89856 1045.829346 248.0849 1046.939453 251.579712 L 1162.512573 568.388306 C 1162.964844 569.745117 1163.190918 571.143005 1163.190918 572.582031 C 1163.190918 575.418945 1162.152832 577.875488 1160.076538 579.951782 C 1158.000244 582.028076 1155.543701 583.066284 1152.706787 583.066284 L 1091.959961 583.066284 C 1086.820557 583.066284 1083.06897 581.853394 1080.704834 579.427612 C 1078.340698 577.001831 1076.726929 574.719971 1075.863525 572.582031 L 1056.991943 522.627808 L 925.199036 522.627808 L 906.327454 572.582031 C 905.587402 574.719971 904.055847 577.001831 901.732849 579.427612 C 899.409912 581.853394 895.575989 583.066284 890.231079 583.066284 Z M 945.365784 451.396698 L 1036.825195 451.396698 L 990.941284 321.145599 Z"/>
        <path id="path11" fill="#ffffff" fill-rule="evenodd" stroke="none" d="M 1889.192749 588 C 1870.40332 588 1852.549438 585.615356 1835.630737 580.846069 C 1818.712036 576.076721 1803.612793 568.912598 1790.332764 559.353394 C 1777.052612 549.794189 1766.53772 537.963623 1758.787476 523.861206 C 1751.037354 509.75882 1746.936279 493.374786 1746.484009 474.708679 C 1746.484009 471.748444 1747.491333 469.199341 1749.505859 467.061371 C 1751.520508 464.923401 1754.06958 463.854431 1757.153198 463.854431 L 1823.758911 463.854431 C 1828.487183 463.854431 1832.063965 464.995361 1834.489868 467.277222 C 1836.915649 469.559082 1838.909546 473.002411 1840.471924 477.607269 C 1842.404419 486.693634 1845.66272 494.135315 1850.246948 499.932495 C 1854.831299 505.729706 1860.638672 509.985016 1867.669312 512.698608 C 1874.699951 515.41217 1882.696655 516.768921 1891.659668 516.768921 C 1908.064575 516.768921 1920.717407 511.424103 1929.618774 500.734222 C 1938.520142 490.044403 1942.970703 474.359314 1942.970703 453.678558 L 1942.970703 311.401459 L 1783.117065 311.401459 C 1779.622437 311.401459 1776.682617 310.209137 1774.297974 307.824463 C 1771.913452 305.439819 1770.721069 302.500122 1770.721069 299.005371 L 1770.721069 250.099548 C 1770.721069 246.604797 1771.913452 243.665161 1774.297974 241.280457 C 1776.682617 238.895813 1779.622437 237.703491 1783.117065 237.703491 L 2021.910767 237.703491 C 2025.528809 237.703491 2028.530273 238.895813 2030.914917 241.280457 C 2033.299438 243.665161 2034.491821 246.666443 2034.491821 250.284546 L 2034.491821 456.330444 C 2034.491821 484.864136 2028.293945 508.946777 2015.897705 528.579102 C 2003.501587 548.211426 1986.398071 563.022827 1964.58667 573.013733 C 1942.775391 583.004639 1917.644287 588 1889.192749 588 Z"/>
        <path id="path12" fill="#ffffff" fill-rule="evenodd" stroke="none" d="M 1574.234253 588 C 1543.850464 588 1517.5271 583.097107 1495.263428 573.29126 C 1472.999756 563.485352 1455.587891 548.571167 1443.027344 528.548279 C 1430.466675 508.52536 1423.590454 483.569031 1422.398071 453.678558 C 1422.069092 439.699524 1421.904663 425.576782 1421.904663 411.309967 C 1421.904663 397.043121 1422.069092 382.714813 1422.398071 368.324615 C 1423.590454 338.763062 1430.538574 313.91983 1443.243164 293.794128 C 1455.947754 273.668396 1473.513672 258.466431 1495.941772 248.187744 C 1518.369873 237.908997 1544.467163 232.769775 1574.234253 232.769775 C 1604.001465 232.769775 1630.098755 237.908997 1652.526855 248.187744 C 1674.954956 258.466431 1692.603149 273.668396 1705.472168 293.794128 C 1718.341064 313.91983 1725.207153 338.763062 1726.070557 368.324615 C 1726.728394 382.714813 1727.057373 397.043121 1727.057373 411.309967 C 1727.057373 425.576782 1726.728394 439.699524 1726.070557 453.678558 C 1725.001587 483.569031 1718.156128 508.52536 1705.533813 528.548279 C 1692.911621 548.571167 1675.468872 563.485352 1653.2052 573.29126 C 1630.941528 583.097107 1604.618164 588 1574.234253 588 Z M 1574.234253 516.768921 C 1591.625854 516.768921 1605.799927 511.557709 1616.75708 501.135101 C 1627.714233 490.712494 1633.542114 473.96875 1634.241089 450.90332 C 1634.898926 436.513153 1635.227783 422.904327 1635.227783 410.076508 C 1635.227783 397.248688 1634.898926 383.845459 1634.241089 369.866425 C 1633.788818 354.489502 1630.952026 341.929108 1625.730347 332.184875 C 1620.508789 322.440674 1613.509033 315.307343 1604.731079 310.784729 C 1595.953125 306.262085 1585.787598 304.000793 1574.234253 304.000793 C 1563.01001 304.000793 1552.95752 306.262085 1544.076782 310.784729 C 1535.196045 315.307343 1528.144897 322.440674 1522.923218 332.184875 C 1517.70166 341.929108 1514.803223 354.489502 1514.227539 369.866425 C 1513.89856 383.845459 1513.734131 397.248688 1513.734131 410.076508 C 1513.734131 422.904327 1513.89856 436.513153 1514.227539 450.90332 C 1515.131958 473.96875 1521.042236 490.712494 1531.958252 501.135101 C 1542.874146 511.557709 1556.966064 516.768921 1574.234253 516.768921 Z"/>
    </g>
    <path id="Rounded-Rectangle" fill="#ffffff" fill-rule="evenodd" stroke="none" d="M 2160 719.5 C 2160 730.821838 2169.178223 740 2180.5 740 C 2191.821777 740 2201 730.821838 2201 719.5 L 2201 101.5 C 2201 90.178162 2191.821777 81 2180.5 81 C 2169.178223 81 2160 90.178162 2160 101.5 Z"/>
</svg>
