<?xml version="1.0" standalone="no"?>
<!DOCTYPE svg PUBLIC "-//W3C//DTD SVG 20010904//EN"
 "http://www.w3.org/TR/2001/REC-SVG-20010904/DTD/svg10.dtd">
<svg version="1.0" xmlns="http://www.w3.org/2000/svg"
 width="2000.000000pt" height="2000.000000pt" viewBox="0 0 2000.000000 2000.000000"
 preserveAspectRatio="xMidYMid meet">
<metadata>
Created by potrace 1.14, written by Peter Selinger 2001-2017
</metadata>
<g transform="translate(0.000000,2000.000000) scale(0.100000,-0.100000)"
fill="#000000" stroke="none">
<path d="M20 19980 c-20 -20 -20 -33 -20 -9981 0 -6847 3 -9966 10 -9980 11
-19 134 -19 9990 -19 9856 0 9979 0 9990 19 7 14 10 3133 10 9980 0 9948 0
9961 -20 9981 -20 20 -33 20 -9980 20 -9947 0 -9960 0 -9980 -20z m10480
-2661 c1761 -121 3422 -876 4675 -2124 1273 -1267 2026 -2932 2145 -4739 22
-333 13 -860 -21 -1186 -123 -1207 -519 -2317 -1184 -3320 -292 -441 -546
-751 -930 -1136 -374 -375 -664 -617 -1075 -896 -913 -621 -1975 -1029 -3085
-1187 -403 -57 -528 -65 -1025 -66 -465 0 -566 5 -900 46 -1910 233 -3643
1205 -4858 2724 -756 943 -1284 2131 -1486 3340 -72 430 -99 762 -100 1220 0
460 27 791 99 1221 385 2293 1844 4277 3915 5323 335 170 606 285 945 400 695
238 1385 364 2165 395 131 5 558 -3 720 -15z"/>
<path d="M9660 15810 c-238 -16 -520 -50 -683 -82 -52 -10 -58 -13 -53 -32 12
-45 1201 -3326 1206 -3326 3 0 110 318 238 708 128 389 374 1135 546 1657
l313 950 -26 7 c-39 12 -291 56 -414 73 -309 43 -843 65 -1127 45z"/>
<path d="M7230 15123 c-575 -322 -975 -624 -1400 -1059 -315 -322 -596 -686
-828 -1071 -55 -91 -70 -123 -58 -123 2 0 817 -279 1811 -620 995 -341 1810
-619 1811 -617 7 7 -1272 3517 -1281 3516 -5 -1 -30 -12 -55 -26z"/>
<path d="M12720 15106 c-25 -67 -741 -2248 -738 -2251 3 -2 1847 1450 1873
1476 12 12 -2 27 -113 120 -235 195 -426 334 -662 481 -143 89 -331 198 -343
198 -4 0 -12 -11 -17 -24z"/>
<path d="M4306 11253 c-24 -82 -86 -466 -105 -658 -115 -1109 102 -2267 611
-3257 l50 -98 73 58 c944 738 3321 2619 3316 2623 -3 4 -454 160 -1001 347
-547 188 -1429 490 -1959 672 -531 181 -968 330 -972 330 -4 0 -10 -8 -13 -17z"/>
<path d="M7778 7272 c-1010 -796 -1837 -1450 -1837 -1454 -1 -3 54 -56 122
-116 818 -737 1771 -1218 2817 -1421 367 -71 702 -103 1095 -104 394 0 700 27
1073 95 163 30 173 33 168 52 -12 48 -1591 4396 -1596 4396 -3 -1 -832 -652
-1842 -1448z"/>
</g>
</svg>
